<mxfile host="app.diagrams.net" modified="2024-05-29T12:23:08.762Z" agent="Mozilla/5.0 (Windows NT 10.0; Win64; x64) AppleWebKit/537.36 (KHTML, like Gecko) Chrome/121.0.0.0 Safari/537.36" etag="HyL7nSMXOq5DY9iGB2aj" version="24.4.9" type="device">
  <diagram id="F00_U8oiD489jz19POk4" name="Página-1">
    <mxGraphModel dx="1434" dy="782" grid="1" gridSize="10" guides="1" tooltips="1" connect="1" arrows="1" fold="1" page="1" pageScale="1" pageWidth="827" pageHeight="1169" math="0" shadow="0">
      <root>
        <mxCell id="0" />
        <mxCell id="1" parent="0" />
        <mxCell id="zUuqDym8y1sysuPfxgTj-1" value="" style="rounded=0;whiteSpace=wrap;html=1;" parent="1" vertex="1">
          <mxGeometry x="130" y="140" width="576" height="330" as="geometry" />
        </mxCell>
        <mxCell id="zUuqDym8y1sysuPfxgTj-2" value="" style="rounded=0;whiteSpace=wrap;html=1;rotation=90;shadow=1;fillColor=#000000;" parent="1" vertex="1">
          <mxGeometry x="427.38" y="191" width="335" height="226.25" as="geometry" />
        </mxCell>
        <mxCell id="zUuqDym8y1sysuPfxgTj-3" value="&lt;font style=&quot;font-size: 20px;&quot;&gt;Gerenciamento de fornecedor&lt;/font&gt;" style="rounded=0;whiteSpace=wrap;html=1;strokeColor=#CCCCCC;" parent="1" vertex="1">
          <mxGeometry x="131" y="140" width="350" height="60" as="geometry" />
        </mxCell>
        <mxCell id="zUuqDym8y1sysuPfxgTj-4" value="&lt;br&gt;&lt;span style=&quot;color: rgb(0, 0, 0); font-family: Helvetica; font-size: 20px; font-style: normal; font-variant-ligatures: normal; font-variant-caps: normal; font-weight: 400; letter-spacing: normal; orphans: 2; text-align: center; text-indent: 0px; text-transform: none; widows: 2; word-spacing: 0px; -webkit-text-stroke-width: 0px; white-space: normal; background-color: rgb(251, 251, 251); text-decoration-thickness: initial; text-decoration-style: initial; text-decoration-color: initial; display: inline !important; float: none;&quot;&gt;Gerenciamento de materias&lt;/span&gt;&lt;div&gt;&lt;br/&gt;&lt;/div&gt;" style="rounded=0;whiteSpace=wrap;html=1;strokeColor=#CCCCCC;" parent="1" vertex="1">
          <mxGeometry x="131" y="200" width="350" height="60" as="geometry" />
        </mxCell>
        <mxCell id="zUuqDym8y1sysuPfxgTj-5" value="&lt;br&gt;&lt;span style=&quot;color: rgb(0, 0, 0); font-family: Helvetica; font-size: 20px; font-style: normal; font-variant-ligatures: normal; font-variant-caps: normal; font-weight: 400; letter-spacing: normal; orphans: 2; text-align: center; text-indent: 0px; text-transform: none; widows: 2; word-spacing: 0px; -webkit-text-stroke-width: 0px; white-space: normal; background-color: rgb(251, 251, 251); text-decoration-thickness: initial; text-decoration-style: initial; text-decoration-color: initial; display: inline !important; float: none;&quot;&gt;Gerenciamento de estoque&lt;/span&gt;&lt;div&gt;&lt;br/&gt;&lt;/div&gt;" style="rounded=0;whiteSpace=wrap;html=1;strokeColor=#CCCCCC;shadow=0;" parent="1" vertex="1">
          <mxGeometry x="131" y="260" width="350" height="60" as="geometry" />
        </mxCell>
        <mxCell id="zUuqDym8y1sysuPfxgTj-20" value="&lt;span style=&quot;font-size: 18px;&quot;&gt;Gerenciamento de fornecedor&lt;/span&gt;" style="rounded=0;html=1;shadow=0;dashed=0;whiteSpace=wrap;fontSize=10;fillColor=#666666;align=center;strokeColor=none;fontColor=#ffffff;" parent="1" vertex="1">
          <mxGeometry x="480" y="90" width="230" height="47" as="geometry" />
        </mxCell>
        <mxCell id="zUuqDym8y1sysuPfxgTj-21" value="&lt;font style=&quot;font-size: 15px;&quot; color=&quot;#ffffff&quot;&gt;Salvar&lt;/font&gt;" style="rounded=1;html=1;shadow=0;dashed=0;whiteSpace=wrap;fontSize=10;fillColor=#0000FF;align=center;strokeColor=#3333FF;fontColor=#333333;" parent="1" vertex="1">
          <mxGeometry x="527.41" y="430" width="133.18" height="30" as="geometry" />
        </mxCell>
        <UserObject label="&lt;font style=&quot;font-size: 10px;&quot; color=&quot;#ffffff&quot;&gt;Historico de movimentação&lt;/font&gt;" placeholders="1" name="Variable" id="zUuqDym8y1sysuPfxgTj-24">
          <mxCell style="text;html=1;strokeColor=none;fillColor=none;align=center;verticalAlign=middle;whiteSpace=wrap;overflow=hidden;strokeWidth=6;" parent="1" vertex="1">
            <mxGeometry x="452" y="365" width="190" height="20" as="geometry" />
          </mxCell>
        </UserObject>
        <UserObject label="&lt;font style=&quot;font-size: 10px;&quot; color=&quot;#ffffff&quot;&gt;Estoque minimo&lt;/font&gt;" placeholders="1" name="Variable" id="zUuqDym8y1sysuPfxgTj-25">
          <mxCell style="text;html=1;align=center;verticalAlign=middle;whiteSpace=wrap;overflow=hidden;" parent="1" vertex="1">
            <mxGeometry x="470" y="385" width="107.06" height="20" as="geometry" />
          </mxCell>
        </UserObject>
        <mxCell id="1bso1jGPwgjQOHf16LsY-8" value="" style="rounded=0;whiteSpace=wrap;html=1;strokeColor=none;shadow=1;" vertex="1" parent="1">
          <mxGeometry x="110" y="630" width="589" height="365" as="geometry" />
        </mxCell>
        <mxCell id="1bso1jGPwgjQOHf16LsY-9" value="" style="rounded=0;whiteSpace=wrap;html=1;" vertex="1" parent="1">
          <mxGeometry x="140" y="675.15" width="180" height="30" as="geometry" />
        </mxCell>
        <UserObject label="&lt;font color=&quot;#cccccc&quot;&gt;nome&lt;/font&gt;" placeholders="1" name="Variable" id="1bso1jGPwgjQOHf16LsY-10">
          <mxCell style="text;html=1;strokeColor=none;fillColor=none;align=center;verticalAlign=middle;whiteSpace=wrap;overflow=hidden;" vertex="1" parent="1">
            <mxGeometry x="140" y="680.15" width="80" height="20" as="geometry" />
          </mxCell>
        </UserObject>
        <UserObject label="Materiais fornecidos" placeholders="1" name="Variable" id="1bso1jGPwgjQOHf16LsY-13">
          <mxCell style="text;html=1;strokeColor=none;fillColor=none;align=center;verticalAlign=middle;whiteSpace=wrap;overflow=hidden;" vertex="1" parent="1">
            <mxGeometry x="140" y="720" width="130" height="20" as="geometry" />
          </mxCell>
        </UserObject>
        <mxCell id="1bso1jGPwgjQOHf16LsY-14" value="" style="shape=ext;double=1;rounded=0;whiteSpace=wrap;html=1;" vertex="1" parent="1">
          <mxGeometry x="130" y="740" width="200" height="180" as="geometry" />
        </mxCell>
        <mxCell id="1bso1jGPwgjQOHf16LsY-15" value="" style="rounded=0;whiteSpace=wrap;html=1;" vertex="1" parent="1">
          <mxGeometry x="140" y="750" width="180" height="30" as="geometry" />
        </mxCell>
        <mxCell id="1bso1jGPwgjQOHf16LsY-16" value="" style="rounded=0;whiteSpace=wrap;html=1;" vertex="1" parent="1">
          <mxGeometry x="140" y="790" width="180" height="30" as="geometry" />
        </mxCell>
        <mxCell id="1bso1jGPwgjQOHf16LsY-17" value="" style="rounded=0;whiteSpace=wrap;html=1;" vertex="1" parent="1">
          <mxGeometry x="140" y="830" width="180" height="30" as="geometry" />
        </mxCell>
        <mxCell id="1bso1jGPwgjQOHf16LsY-18" value="" style="rounded=0;whiteSpace=wrap;html=1;" vertex="1" parent="1">
          <mxGeometry x="140" y="870" width="180" height="30" as="geometry" />
        </mxCell>
        <mxCell id="1bso1jGPwgjQOHf16LsY-19" value="" style="html=1;shadow=0;dashed=0;align=center;verticalAlign=middle;shape=mxgraph.arrows2.arrow;dy=0;dx=21.5;notch=0;rotation=90;fillColor=#CCCCCC;strokeColor=none;" vertex="1" parent="1">
          <mxGeometry x="297.19" y="681.95" width="13.17" height="17.88" as="geometry" />
        </mxCell>
        <mxCell id="1bso1jGPwgjQOHf16LsY-20" value="" style="strokeColor=#999999;verticalLabelPosition=bottom;shadow=0;dashed=0;verticalAlign=top;strokeWidth=2;html=1;shape=mxgraph.mockup.misc.trashcanIcon;" vertex="1" parent="1">
          <mxGeometry x="131" y="960" width="30" height="30" as="geometry" />
        </mxCell>
        <mxCell id="1bso1jGPwgjQOHf16LsY-25" value="(Desativar fornecedor)" style="text;html=1;align=center;verticalAlign=middle;whiteSpace=wrap;rounded=0;" vertex="1" parent="1">
          <mxGeometry x="152.5" y="960" width="155" height="30" as="geometry" />
        </mxCell>
        <mxCell id="1bso1jGPwgjQOHf16LsY-26" value="&lt;font style=&quot;font-size: 21px;&quot;&gt;Gerenciamento de fornecedor&lt;/font&gt;" style="text;strokeColor=none;fillColor=none;html=1;fontSize=24;fontStyle=1;verticalAlign=middle;align=center;" vertex="1" parent="1">
          <mxGeometry x="354.5" y="625" width="100" height="40" as="geometry" />
        </mxCell>
        <mxCell id="1bso1jGPwgjQOHf16LsY-31" value="&lt;font style=&quot;font-size: 20px;&quot;&gt;editar materiais&lt;/font&gt;" style="text;strokeColor=none;fillColor=none;html=1;fontSize=24;fontStyle=1;verticalAlign=middle;align=center;" vertex="1" parent="1">
          <mxGeometry x="364" y="670.15" width="100" height="40" as="geometry" />
        </mxCell>
      </root>
    </mxGraphModel>
  </diagram>
</mxfile>
